Coordinates
version=1
nRows=12
nColumns=23
inDegrees=yes

Units are S.I. units (second, meters, Newtons, ...)
If the header above contains a line with 'inDegrees', this indicates whether rotational values are in degrees (yes) or radians (no).

endheader
time	pelvis_tilt	pelvis_list	pelvis_rotation	pelvis_tx	pelvis_ty	pelvis_tz	hip_flexion_r	hip_adduction_r	hip_rotation_r	knee_angle_r	knee_angle_r_beta	ankle_angle_r	subtalar_angle_r	mtp_angle_r	hip_flexion_l	hip_adduction_l	hip_rotation_l	knee_angle_l	knee_angle_l_beta	ankle_angle_l	subtalar_angle_l	mtp_angle_l
     22.50000000	    -12.30361260	      7.05615766	      2.41691326	      2.14586651	      0.91326288	      0.96467360	      1.40377325	    -10.23565548	     -6.38606686	     59.65572819	      1.04118887	     -8.87265808	    -16.39907623	      0.00000000	     36.43649083	      9.45708271	     -8.74621798	     33.67056971	      0.58766230	      9.74467414	     -6.87779697	      0.00000000
     22.50666667	    -11.92090636	      7.36911291	      2.64548932	      2.14450127	      0.90885160	      0.96421327	      2.49168087	    -10.73419700	     -6.20876180	     62.82371801	      1.09648073	     -8.56734814	    -17.79743004	      0.00000000	     36.47469621	      9.97720594	     -8.08588479	     36.41374892	      0.63553981	     10.97927457	     -8.00594320	      0.00000000
     22.51333333	    -11.55974947	      7.59242832	      2.86207700	      2.14297671	      0.90468076	      0.96377279	      3.69312301	    -11.11935070	     -5.97438283	     65.90206727	      1.15020806	     -8.20531353	    -19.12225441	      0.00000000	     36.41377665	     10.42563320	     -7.43216905	     38.94715132	      0.67975602	     12.41067780	     -8.91256742	      0.00000000
     22.52000000	    -10.87322857	      7.76571784	      3.07059481	      2.14150310	      0.90131941	      0.96333324	      4.55376742	    -11.40152114	     -5.73605700	     68.75538210	      1.20000780	     -7.74827174	    -20.27416336	      0.00000000	     35.79460343	     10.85871666	     -6.74873943	     41.13652701	      0.71796784	     14.02084193	     -9.64943496	      0.00000000
     22.52666667	    -10.98010992	      7.77358371	      3.09812378	      2.13941550	      0.89717503	      0.96319535	      6.58465149	    -11.45704673	     -5.05556796	     71.74478119	      1.25218265	     -7.24109693	    -21.43681202	      0.00000000	     35.98703750	     10.98867906	     -6.31820311	     43.19873539	      0.75396017	     15.55616277	    -10.08280494	      0.00000000
     22.53333333	    -10.28670163	      7.76746792	      3.19558868	      2.13779711	      0.89464014	      0.96286738	      7.59466737	    -11.49034823	     -4.65231300	     74.27524103	      1.29634751	     -6.61462678	    -22.30762347	      0.00000000	     35.00469938	     11.19668237	     -5.74980202	     44.78654564	      0.78167268	     17.04973194	    -10.59136223	      0.00000000
     22.54000000	    -10.70930445	      7.64391177	      2.95870821	      2.13533345	      0.89089959	      0.96315444	     10.23772467	    -11.22187160	     -3.51586692	     77.03272280	      1.34447464	     -5.96093261	    -23.12651505	      0.00000000	     35.24708467	     11.00844181	     -5.68718739	     46.31223574	      0.80830100	     18.56822895	    -10.62523614	      0.00000000
     22.54666667	    -10.75674714	      7.53492835	      2.71655211	      2.13313437	      0.88824759	      0.96337365	     12.41286109	    -10.93811705	     -2.49117876	     79.43484108	      1.38639952	     -5.18690679	    -23.71124361	      0.00000000	     34.82911776	     10.87852664	     -5.56433091	     47.41119526	      0.82748146	     19.98649149	    -10.70281758	      0.00000000
     22.55333333	    -10.63365178	      7.36167516	      2.51840785	      2.13115131	      0.88637660	      0.96351341	     14.33920276	    -10.56688913	     -1.59985010	     81.50380385	      1.42250973	     -4.40168380	    -24.11080978	      0.00000000	     34.03397486	     10.73835240	     -5.33775374	     48.20593081	      0.84135221	     21.27582337	    -10.86431082	      0.00000000
     22.56000000	    -11.04103018	      7.26888177	      2.11457438	      2.12886051	      0.88421407	      0.96397487	     17.02819304	    -10.15339941	     -0.36612658	     83.52562244	      1.45779712	     -3.55943404	    -24.30697926	      0.00000000	     33.73838566	     10.49660544	     -5.49862908	     48.81861935	      0.85204564	     22.41594036	    -10.72186756	      0.00000000
     22.56666667	    -11.28233647	      7.18001440	      1.82115437	      2.12684630	      0.88284812	      0.96429338	     19.42133737	     -9.78512705	      0.61759556	     85.18203238	      1.48670693	     -2.72392181	    -24.36327510	      0.00000000	     33.07859569	     10.35306718	     -5.50580123	     49.11810528	      0.85727266	     23.40064199	    -10.65480536	      0.00000000
     22.57333333	    -11.01955711	      6.89904563	      1.84463030	      2.12548209	      0.88302822	      0.96421611	     20.96982529	     -9.31279177	      1.06478866	     86.25998029	      1.50552067	     -2.10485217	    -24.43206814	      0.00000000	     31.61855181	     10.28893243	     -4.94093928	     49.05787172	      0.85622139	     24.09799872	    -10.65475070	      0.00000000
